<svg width="20" height="20" viewBox="0 0 20 20" fill="none" xmlns="http://www.w3.org/2000/svg">
<path d="M11.0178 14V6H13.3622C15.7066 6 17.0001 7.2381 17.0001 9.77381V10.0119C17.0001 12.5 15.8798 14 13.3853 14H11.0178ZM12.0341 13.0952H13.4084C15.1292 13.0952 15.9029 12.2143 15.9029 10.1667V9.77381C15.9029 7.60714 14.9444 6.91667 13.2583 6.91667H12.0341V13.0952Z" fill="#717171"/>
<path d="M4 14L6.82944 6H7.81108L10.6174 14H9.55493L8.76962 11.75H5.74386L4.97009 14H4ZM7.22209 7.40476L6.04412 10.8571H8.45781L7.25674 7.40476H7.22209Z" fill="#717171"/>
</svg>
