<svg width="30" height="30" viewBox="0 0 30 30" fill="none" xmlns="http://www.w3.org/2000/svg">
<circle cx="15" cy="15" r="15" fill="#2DB0E8"/>
<path fill-rule="evenodd" clip-rule="evenodd" d="M10.245 19.9005L9.23604 14.9337C9.16157 13.7504 9.3619 11.9993 10.1776 10.5589C10.9813 9.13948 12.389 8 14.8357 8V7C11.9985 7 10.2732 8.36054 9.30741 10.0661C8.49812 11.4953 8.22746 13.1502 8.22183 14.4229C7.92103 14.3969 7.6049 14.3937 7.29316 14.4243C6.76425 14.4764 6.20219 14.6307 5.75972 14.9845C5.29696 15.3546 5.01355 15.9047 5.00048 16.6317C4.98783 17.3349 5.22668 18.1902 5.75322 19.2265C6.27262 20.2488 6.75796 20.9511 7.21842 21.3923C7.67892 21.8336 8.17405 22.0666 8.68178 21.9952C9.1776 21.9254 9.5281 21.5862 9.75635 21.2491C9.98903 20.9056 10.1458 20.4928 10.2397 20.1231L10.2678 20.0124L10.245 19.9005ZM7.3911 15.4195C7.69626 15.3895 8.01708 15.4007 8.31817 15.4385L9.24149 19.9835C9.16623 20.2436 9.05888 20.4957 8.92837 20.6884C8.77566 20.9139 8.63936 20.9913 8.54252 21.0049C8.45759 21.0169 8.2542 20.9998 7.91031 20.6703C7.56639 20.3407 7.14149 19.7513 6.64475 18.7736C6.15516 17.8099 5.99179 17.1235 6.00031 16.6497C6.00841 16.1996 6.16956 15.9372 6.38422 15.7656C6.61917 15.5777 6.96739 15.4612 7.3911 15.4195ZM19.4268 19.9005L20.4358 14.9337C20.5103 13.7504 20.31 11.9993 19.4943 10.5589C18.6905 9.13948 17.2828 8 14.8362 8V7C17.6734 7 19.3986 8.36054 20.3645 10.0661C21.1738 11.4953 21.4444 13.1502 21.45 14.4229C21.7508 14.3969 22.067 14.3937 22.3787 14.4243C22.9076 14.4764 23.4697 14.6307 23.9122 14.9845C24.3749 15.3546 24.6583 15.9047 24.6714 16.6317C24.684 17.3349 24.4452 18.1902 23.9187 19.2265C23.3993 20.2488 22.9139 20.9511 22.4535 21.3923C21.993 21.8336 21.4978 22.0666 20.9901 21.9952C20.4943 21.9254 20.1438 21.5862 19.9155 21.2491C19.6828 20.9056 19.5261 20.4928 19.4322 20.1231L19.4041 20.0124L19.4268 19.9005ZM22.2808 15.4195C21.9756 15.3895 21.6548 15.4007 21.3537 15.4385L20.4304 19.9835C20.5056 20.2436 20.613 20.4957 20.7435 20.6884C20.8962 20.9139 21.0325 20.9913 21.1294 21.0049C21.2143 21.0169 21.4177 20.9998 21.7616 20.6703C22.1055 20.3407 22.5304 19.7513 23.0271 18.7736C23.5167 17.8099 23.6801 17.1235 23.6716 16.6497C23.6635 16.1996 23.5023 15.9372 23.2877 15.7656C23.0527 15.5777 22.7045 15.4612 22.2808 15.4195Z" fill="white"/>
</svg>
