<svg width="34" height="34" viewBox="0 0 34 34" fill="none" xmlns="http://www.w3.org/2000/svg">
<path d="M18 29.5C18 29.5989 17.9707 29.6956 17.9157 29.7778C17.8608 29.86 17.7827 29.9241 17.6913 29.9619C17.6 29.9998 17.4994 30.0097 17.4025 29.9904C17.3055 29.9711 17.2164 29.9235 17.1464 29.8536C17.0765 29.7836 17.0289 29.6945 17.0096 29.5975C16.9903 29.5006 17.0002 29.4 17.0381 29.3087C17.0759 29.2173 17.14 29.1392 17.2222 29.0843C17.3044 29.0293 17.4011 29 17.5 29C17.5657 29 17.6308 29.013 17.6915 29.0381C17.7522 29.0633 17.8074 29.1002 17.8538 29.1467C17.9002 29.1932 17.937 29.2484 17.9621 29.3091C17.9872 29.3699 18.0001 29.4343 18 29.5Z" fill="black"/>
<path d="M8 6H27V28H8V6Z" stroke="black" stroke-width="1.5" stroke-linecap="round" stroke-linejoin="round"/>
<path d="M8.70931 3.00072H26.2907C26.6457 3.00006 26.9975 3.06152 27.3258 3.18159C27.6541 3.30167 27.9525 3.47801 28.2041 3.70054C28.4557 3.92307 28.6555 4.18744 28.792 4.47855C28.9286 4.76965 28.9992 5.0818 29 5.39717V28.5928C29.0008 28.9081 28.9318 29.2206 28.7967 29.5122C28.6616 29.8039 28.4631 30.069 28.2127 30.2926C27.9622 30.5161 27.6647 30.6936 27.337 30.815C27.0093 30.9364 26.6579 30.9992 26.3028 31H8.70931C8.35426 31.0007 8.00254 30.9392 7.67424 30.8191C7.34593 30.699 7.04747 30.5227 6.79589 30.3002C6.5443 30.0776 6.34453 29.8133 6.20797 29.5222C6.07142 29.2311 6.00075 28.9189 6.00001 28.6035V5.40722C5.99916 5.09185 6.06825 4.77943 6.20333 4.48778C6.33842 4.19613 6.53686 3.93097 6.78731 3.70744C7.03777 3.4839 7.33534 3.30638 7.66304 3.185C7.99073 3.06362 8.34214 3.00075 8.69719 3L8.70931 3.00072Z" stroke="black" stroke-width="1.5" stroke-linecap="round" stroke-linejoin="round"/>
</svg>
