<svg width="34" height="34" viewBox="0 0 34 34" fill="none" xmlns="http://www.w3.org/2000/svg">
<path fill-rule="evenodd" clip-rule="evenodd" d="M6.64648 2.87695C5.1277 2.87695 3.89648 4.10817 3.89648 5.62695V27.4478V27.8658H3.91998C4.12746 29.6988 5.68331 31.1232 7.57185 31.1232H28.7844V29.6232H7.57185C6.37043 29.6232 5.39648 28.6493 5.39648 27.4478C5.39648 26.2464 6.37043 25.2725 7.57186 25.2725H28.9999V24.5225H29.1034V5.62695C29.1034 4.10817 27.8722 2.87695 26.3534 2.87695H6.64648ZM27.6034 23.7725V5.62695C27.6034 4.9366 27.0437 4.37695 26.3534 4.37695H6.64648C5.95613 4.37695 5.39648 4.9366 5.39648 5.62695V24.4851C6.00556 24.0371 6.7578 23.7725 7.57186 23.7725H27.6034Z" fill="black"/>
<path d="M21.3529 13.5839H19.8049V19.0079H18.4129V8.31592H19.8049V12.4199H21.3529V13.5839ZM16.9969 9.40792C16.9009 12.6359 15.4849 15.2999 12.2089 17.0759L11.3569 16.0199C13.6849 14.9519 15.2809 12.7079 15.4729 10.5719H12.0049V9.40792H16.9969Z" fill="#3D499F"/>
</svg>
