<svg width="44" height="34" viewBox="0 0 44 34" fill="none" xmlns="http://www.w3.org/2000/svg">
<path fill-rule="evenodd" clip-rule="evenodd" d="M37.5358 6C35.896 6 34.5978 6.91611 34.0795 8.14628C33.5448 9.41527 33.8858 10.925 35.3149 11.8747L35.9395 12.2898L36.7697 11.0404L36.1451 10.6253C35.3169 10.075 35.2064 9.33473 35.4618 8.72872C35.7335 8.08389 36.4669 7.5 37.5358 7.5C38.1986 7.5 38.9098 7.84296 39.4728 8.39734L39.4575 8.41089L39.9331 8.9484C40.1503 9.26681 40.3207 9.62418 40.4229 10.0063C40.6039 10.683 40.5568 11.4025 40.1808 12.0823C39.8018 12.7675 39.0489 13.4826 37.6933 14.06C35.7137 14.9033 33.6248 14.6712 31.5638 13.9332C29.5739 13.2205 27.6978 12.0692 26.0737 11.0725L25.877 10.9519C25.276 10.5834 24.5278 10.6202 23.9634 11.009C21.8417 12.4705 18.4095 14.4121 13.4075 13.0272C7.38794 11.3605 3.76332 13.026 1.99951 14.1112L2.69288 15.4372C2.79897 15.3909 3.00484 15.3421 3.33908 15.3257C3.66285 15.3098 4.0616 15.3261 4.52341 15.3763C5.44658 15.4767 6.56862 15.7067 7.74827 16.0376C10.1244 16.704 12.6164 17.7459 14.1163 18.8534C15.4223 19.8176 16.6523 20.59 17.8435 21.3228C17.9923 21.4144 18.1403 21.5052 18.2876 21.5956C19.2505 22.1865 20.187 22.7612 21.1416 23.4134L19.6282 25.369C19.3044 25.7873 19.1921 26.3177 19.3232 26.8057C19.4577 27.3062 19.8404 27.7214 20.3969 27.8763C21.539 28.1942 23.3508 28.5 25.8281 28.5C28.3856 28.5 29.8693 28.1747 30.6584 27.791C31.0742 27.5889 31.3077 27.2089 31.3362 26.7963C31.3621 26.4207 31.219 26.0737 31.0192 25.8155L28.9301 23.1161C29.0806 22.8212 29.3644 22.4658 29.8089 22.0698C30.3306 21.6051 31.0248 21.1277 31.8481 20.6693C33.4947 19.7526 35.5925 18.9486 37.698 18.4823C39.9622 17.9807 41.7546 16.4403 42.5038 14.4556C43.2604 12.4514 42.9226 10.0765 41.096 7.99908C40.2545 6.82818 38.933 6 37.5358 6ZM38.2812 15.44C39.7176 14.8281 40.7188 14.0197 41.3248 13.0887C41.2777 13.3776 41.2018 13.6576 41.1005 13.9258C40.5403 15.4097 39.1725 16.6193 37.3736 17.0178C35.1324 17.5142 32.8973 18.3684 31.1184 19.3587C30.2289 19.8539 29.4371 20.3923 28.8112 20.9498C28.1957 21.4981 27.6885 22.1109 27.448 22.7669C27.2903 23.1973 27.4213 23.6174 27.6364 23.8954L29.7015 26.5637C29.0851 26.7747 27.8987 27 25.8281 27C23.4699 27 21.795 26.7084 20.7991 26.4312C20.7837 26.4269 20.7761 26.4226 20.7733 26.4206C20.7729 26.4198 20.7724 26.4185 20.7718 26.4164C20.7684 26.4037 20.763 26.3534 20.8144 26.287L22.492 24.1193C22.9241 23.5611 22.8112 22.7453 22.22 22.3348C21.1507 21.5924 20.1054 20.9511 19.0702 20.3159L19.0702 20.3159C18.9231 20.2256 18.7762 20.1355 18.6295 20.0453C17.445 19.3165 16.2598 18.5714 15.0073 17.6466C13.2977 16.3844 10.608 15.2817 8.15334 14.5933C7.41814 14.3871 6.69361 14.2151 6.01113 14.0861C7.73284 13.7108 10.0323 13.6491 13.0073 14.4728C18.6421 16.033 22.5494 13.8045 24.8143 12.2443C24.9065 12.1808 25.0142 12.1823 25.0929 12.2306L25.3233 12.372L25.3233 12.372C26.9222 13.3537 28.9173 14.5787 31.0581 15.3453C33.3128 16.1528 35.823 16.4871 38.2812 15.44ZM29.8456 26.7538C29.8454 26.7537 29.8449 26.7526 29.8441 26.7503C29.8453 26.7527 29.8457 26.7539 29.8456 26.7538ZM24.9263 8.75C25.425 8.75 25.8292 8.30228 25.8292 7.75C25.8292 7.19772 25.425 6.75 24.9263 6.75C24.4277 6.75 24.0234 7.19772 24.0234 7.75C24.0234 8.30228 24.4277 8.75 24.9263 8.75Z" fill="black"/>
</svg>
