<svg width="34" height="34" viewBox="0 0 34 34" fill="none" xmlns="http://www.w3.org/2000/svg">
<path fill-rule="evenodd" clip-rule="evenodd" d="M7.64648 2.87695C6.1277 2.87695 4.89648 4.10817 4.89648 5.62695V27.4479V27.8658H4.91998C5.12745 29.6988 6.68331 31.1232 8.57186 31.1232H29.7844V29.6232H8.57186C7.37043 29.6232 6.39648 28.6493 6.39648 27.4479C6.39648 26.2464 7.37043 25.2725 8.57186 25.2725H29.9999V24.5225H30.1034V5.62695C30.1034 4.10817 28.8722 2.87695 27.3534 2.87695H7.64648ZM28.6034 23.7725V5.62695C28.6034 4.9366 28.0437 4.37695 27.3534 4.37695H7.64648C6.95613 4.37695 6.39648 4.9366 6.39648 5.62695V24.4851C7.00556 24.0371 7.7578 23.7725 8.57186 23.7725H28.6034Z" fill="black"/>
<path d="M13.538 17.5677L16.538 9.33569H18.05L20.978 17.5677H19.454L18.71 15.4797H15.65L14.906 17.5677H13.538ZM17.15 11.0877L15.998 14.3757H18.338L17.186 11.0877H17.15Z" fill="#3D499F"/>
</svg>
