<svg width="58" height="24" viewBox="0 0 58 24" fill="none" xmlns="http://www.w3.org/2000/svg">
<rect width="58" height="24" rx="12" fill="black" fill-opacity="0.25"/>
<path d="M13.9887 15.556V8.788L12.6087 9.064V8.2L14.6967 7.264H15.4767V15.556H13.9887ZM16.0647 16.756L18.9327 6.568H20.1327L17.2767 16.756H16.0647ZM22.4069 15.628C21.4709 15.628 20.5949 15.388 20.0669 15.064L20.3309 13.936C20.7749 14.2 21.3989 14.428 22.0349 14.428C23.1749 14.428 23.8709 13.876 23.8709 12.88C23.8709 11.836 23.2229 11.404 22.0949 11.404C21.5789 11.404 20.8109 11.656 20.4269 11.848L20.7269 7.324H25.0229V8.476H21.8549L21.6989 10.48C21.9749 10.408 22.4189 10.336 22.7309 10.336C24.3749 10.336 25.3949 11.176 25.3949 12.916C25.3949 14.44 24.2789 15.628 22.4069 15.628Z" fill="white"/>
<line x1="35" y1="11.8125" x2="45" y2="11.8125" stroke="white"/>
<line x1="40.1875" y1="7" x2="40.1875" y2="17" stroke="white"/>
</svg>
