<svg width="24" height="24" viewBox="0 0 24 24" fill="none" xmlns="http://www.w3.org/2000/svg">
<path fill-rule="evenodd" clip-rule="evenodd" d="M4.82072 1V4.43585C6.74853 2.84009 9.25806 1.87697 11.9987 1.87697C18.0541 1.87697 22.9973 6.58704 22.9973 12.4386C22.9973 18.2901 18.0541 23.0002 11.9987 23.0002C5.9432 23.0002 1 18.2901 1 12.4386H1.9375C1.9375 17.7353 6.42311 22.0627 11.9987 22.0627C17.5742 22.0627 22.0598 17.7353 22.0598 12.4386C22.0598 7.14186 17.5742 2.81447 11.9987 2.81447C9.55432 2.81447 7.31642 3.64773 5.57517 5.03099H9.19069V5.96849H4.35197H3.88322V5.49974V1H4.82072ZM10.9971 8.82953V14.7017C10.9971 14.9779 11.2209 15.2017 11.4971 15.2017H16.5113V14.2017H11.9971V8.82953H10.9971Z" fill="white"/>
</svg>
