<svg width="34" height="34" viewBox="0 0 34 34" fill="none" xmlns="http://www.w3.org/2000/svg">
<path fill-rule="evenodd" clip-rule="evenodd" d="M4.5 19.4255H29.5V21.6257C29.5 21.9018 29.2761 22.1257 29 22.1257H5C4.72386 22.1257 4.5 21.9018 4.5 21.6257V19.4255ZM4.5 17.9255H29.5V5C29.5 4.72386 29.2761 4.5 29 4.5H5C4.72386 4.5 4.5 4.72386 4.5 5V17.9255ZM31 5V17.9255V18.6755V19.4255V21.6257C31 22.7302 30.1046 23.6257 29 23.6257H17.7499V28.6509H24.6362V30.1509H16.9999H8.93925V28.6509H16.2499V23.6257H5C3.89543 23.6257 3 22.7302 3 21.6257V19.4255V18.6755V17.9255V5C3 3.89543 3.89543 3 5 3H29C30.1046 3 31 3.89543 31 5Z" fill="black"/>
</svg>
