<svg width="24" height="24" viewBox="0 0 24 24" fill="none" xmlns="http://www.w3.org/2000/svg">
<path fill-rule="evenodd" clip-rule="evenodd" d="M19.864 10.625C19.864 15.3591 15.8948 19.25 10.932 19.25C5.96916 19.25 2 15.3591 2 10.625C2 5.89091 5.96916 2 10.932 2C15.8948 2 19.864 5.89091 19.864 10.625ZM17.2094 18.0841C15.4985 19.438 13.3131 20.25 10.932 20.25C5.4467 20.25 1 15.9407 1 10.625C1 5.30926 5.4467 1 10.932 1C16.4173 1 20.864 5.30926 20.864 10.625C20.864 13.2788 19.7557 15.6817 17.9633 17.4228L23.0009 22.3048L22.2828 23.0007L17.2094 18.0841Z" fill="black"/>
</svg>
