<svg width="15" height="10" viewBox="0 0 15 10" fill="none" xmlns="http://www.w3.org/2000/svg">
<path d="M11.3258 6.25C10.3914 6.25 9.62121 5.94363 9.01515 5.33088C8.38384 4.74265 8.06818 3.9951 8.06818 3.08824C8.06818 2.23039 8.39646 1.4951 9.05303 0.882354C9.7096 0.294119 10.505 0 11.4394 0C12.5253 0 13.3965 0.343138 14.053 1.02941C14.6843 1.71569 15 2.75735 15 4.15441C15 6.28677 14.3561 7.79412 13.0682 8.67647C11.755 9.55882 10.1515 10 8.25758 10V9.04412C9.34343 8.87255 10.2904 8.52941 11.0985 8.01471C11.8813 7.52451 12.2727 6.91177 12.2727 6.17647C12.0455 6.22549 11.7298 6.25 11.3258 6.25ZM3.25758 6.25C2.32323 6.25 1.55303 5.94363 0.946968 5.33088C0.315656 4.74265 0 3.9951 0 3.08824C0 2.23039 0.328282 1.4951 0.984847 0.882354C1.64141 0.294119 2.43687 0 3.37121 0C4.45707 0 5.32828 0.343138 5.98485 1.02941C6.61616 1.71569 6.93182 2.75735 6.93182 4.15441C6.93182 6.28677 6.28788 7.79412 5 8.67647C3.68687 9.55882 2.08333 10 0.189393 10V9.04412C1.27525 8.87255 2.22222 8.52941 3.0303 8.01471C3.81313 7.52451 4.20454 6.91177 4.20454 6.17647C3.97727 6.22549 3.66162 6.25 3.25758 6.25Z" fill="#3D499F"/>
</svg>
