<svg width="20" height="20" viewBox="0 0 20 20" fill="none" xmlns="http://www.w3.org/2000/svg">
<path fill-rule="evenodd" clip-rule="evenodd" d="M3.17219 9.50195C3.69881 8.71195 4.521 7.70916 5.55388 6.84934C6.81728 5.79763 8.34638 5 10.0006 5C11.6547 5 13.1839 5.79763 14.4473 6.84934C15.4801 7.70916 16.3023 8.71195 16.8289 9.50195C16.3023 10.292 15.4801 11.2947 14.4473 12.1546C13.1839 13.2063 11.6547 14.0039 10.0006 14.0039C8.34638 14.0039 6.81728 13.2063 5.55388 12.1546C4.521 11.2947 3.69881 10.292 3.17219 9.50195ZM2.0221 9.50195L2.00159 9.49011C2.53188 8.57192 3.55212 7.21455 4.91409 6.08078C6.27357 4.9491 8.02307 4 10.0006 4C11.9781 4 13.7276 4.9491 15.087 6.08078C16.449 7.21455 17.4693 8.57192 17.9995 9.49011L17.979 9.50195L17.9995 9.5138C17.4693 10.432 16.449 11.7894 15.087 12.9231C13.7276 14.0548 11.9781 15.0039 10.0006 15.0039C8.02307 15.0039 6.27357 14.0548 4.91409 12.9231C3.55212 11.7894 2.53188 10.432 2.00159 9.5138L2.0221 9.50195Z" fill="#717171"/>
<circle cx="10" cy="9.50195" r="2.5" stroke="#717171"/>
</svg>
