<svg width="24" height="24" viewBox="0 0 24 24" fill="none" xmlns="http://www.w3.org/2000/svg">
<mask id="path-1-inside-1_12_772" fill="white">
<path fill-rule="evenodd" clip-rule="evenodd" d="M21 7.31738H3V11.5273H5.07617V20.0001V21.0001H6.07617H17.9223H18.9223V20.0001V11.5273H21V7.31738ZM6.07617 11.5273H17.9223V20.0001H6.07617V11.5273Z"/>
</mask>
<path d="M3 7.31738V6.31738H2V7.31738H3ZM21 7.31738H22V6.31738H21V7.31738ZM3 11.5273H2V12.5273H3V11.5273ZM5.07617 11.5273H6.07617V10.5273H5.07617V11.5273ZM5.07617 21.0001H4.07617V22.0001H5.07617V21.0001ZM18.9223 21.0001V22.0001H19.9223V21.0001H18.9223ZM18.9223 11.5273V10.5273H17.9223V11.5273H18.9223ZM21 11.5273V12.5273H22V11.5273H21ZM17.9223 11.5273H18.9223V10.5273H17.9223V11.5273ZM6.07617 11.5273V10.5273H5.07617V11.5273H6.07617ZM17.9223 20.0001V21.0001H18.9223V20.0001H17.9223ZM6.07617 20.0001H5.07617V21.0001H6.07617V20.0001ZM3 8.31738H21V6.31738H3V8.31738ZM4 11.5273V7.31738H2V11.5273H4ZM5.07617 10.5273H3V12.5273H5.07617V10.5273ZM4.07617 11.5273V20.0001H6.07617V11.5273H4.07617ZM4.07617 20.0001V21.0001H6.07617V20.0001H4.07617ZM5.07617 22.0001H6.07617V20.0001H5.07617V22.0001ZM6.07617 22.0001H17.9223V20.0001H6.07617V22.0001ZM17.9223 22.0001H18.9223V20.0001H17.9223V22.0001ZM19.9223 21.0001V20.0001H17.9223V21.0001H19.9223ZM19.9223 20.0001V11.5273H17.9223V20.0001H19.9223ZM21 10.5273H18.9223V12.5273H21V10.5273ZM20 7.31738V11.5273H22V7.31738H20ZM17.9223 10.5273H6.07617V12.5273H17.9223V10.5273ZM18.9223 20.0001V11.5273H16.9223V20.0001H18.9223ZM6.07617 21.0001H17.9223V19.0001H6.07617V21.0001ZM5.07617 11.5273V20.0001H7.07617V11.5273H5.07617Z" fill="black" mask="url(#path-1-inside-1_12_772)"/>
<path fill-rule="evenodd" clip-rule="evenodd" d="M11.9998 6.71019C11.5246 5.82592 11.0634 5.12672 10.6241 4.58561C10.074 3.90795 9.54532 3.46206 9.05086 3.2202C8.55233 2.97636 8.06315 2.93028 7.64387 3.10578C7.22773 3.27997 6.9609 3.63904 6.83525 4.04413C6.58644 4.84622 6.8463 5.92308 7.68232 6.74596C8.46993 7.52121 9.74968 8.06111 11.5906 8.02203V20.4737H12.4088V8.02203C14.2499 8.06114 15.5297 7.52123 16.3173 6.74596C17.1533 5.92308 17.4132 4.84622 17.1644 4.04413C17.0387 3.63904 16.7719 3.27997 16.3558 3.10578C15.9365 2.93028 15.4473 2.97636 14.9488 3.2202C14.4543 3.46206 13.9256 3.90795 13.3755 4.58561C12.9363 5.12672 12.475 5.82592 11.9998 6.71019ZM11.3509 7.22396C9.81285 7.21373 8.83263 6.74307 8.26278 6.18216C7.60698 5.53667 7.46911 4.75696 7.61821 4.27632C7.6915 4.04004 7.82254 3.90121 7.96586 3.84122C8.10606 3.78254 8.33794 3.766 8.6848 3.93566C9.03572 4.10731 9.47669 4.45891 9.98328 5.08296C10.4066 5.6044 10.8666 6.30494 11.3509 7.22396ZM15.7369 6.18216C15.167 6.74307 14.1868 7.21373 12.6487 7.22396C13.133 6.30494 13.5931 5.6044 14.0164 5.08296C14.5229 4.45891 14.9639 4.10731 15.3148 3.93566C15.6617 3.766 15.8936 3.78254 16.0338 3.84122C16.1771 3.90121 16.3081 4.04004 16.3814 4.27632C16.5305 4.75696 16.3926 5.53667 15.7369 6.18216Z" fill="#EA217D"/>
</svg>
