<svg width="24" height="24" viewBox="0 0 24 24" fill="none" xmlns="http://www.w3.org/2000/svg">
<path d="M11.4544 18.4032L11.4537 18.4026C8.99722 16.2303 6.99938 14.4627 5.60965 12.8057C4.22525 11.1552 3.5 9.67793 3.5 8.09537C3.5 5.52987 5.56323 3.5 8.225 3.5C9.73124 3.5 11.1812 4.18619 12.1234 5.26511L12.5 5.69641L12.8766 5.26511C13.8188 4.18619 15.2688 3.5 16.775 3.5C19.4368 3.5 21.5 5.52987 21.5 8.09537C21.5 9.67794 20.7748 11.1552 19.3902 12.807C18.0023 14.4629 16.0081 16.2302 13.5561 18.4031L13.547 18.4112L13.5459 18.4122L12.5013 19.3325L11.4544 18.4032Z" fill="#EA217D" stroke="#EA217D"/>
</svg>
