<svg width="28" height="28" viewBox="0 0 28 28" fill="none" xmlns="http://www.w3.org/2000/svg">
<rect x="0.5" y="0.5" width="27" height="27" stroke="#D6D6D6"/>
<path fill-rule="evenodd" clip-rule="evenodd" d="M8.85356 7.14645C8.65829 6.95118 8.34171 6.95118 8.14645 7.14645C7.95119 7.34171 7.95119 7.65829 8.14645 7.85355L14.2785 13.9856L8.16086 19.6326C7.95795 19.8199 7.9453 20.1362 8.1326 20.3391C8.3199 20.5421 8.63623 20.5547 8.83914 20.3674L15.3391 14.3674C15.4391 14.2751 15.4972 14.146 15.4999 14.01C15.5026 13.8739 15.4498 13.7427 15.3536 13.6464L8.85356 7.14645ZM12.1036 7.14645C11.9083 6.95118 11.5917 6.95118 11.3964 7.14645C11.2012 7.34171 11.2012 7.65829 11.3964 7.85355L17.5285 13.9856L11.4109 19.6326C11.208 19.8199 11.1953 20.1362 11.3826 20.3391C11.5699 20.5421 11.8862 20.5547 12.0891 20.3674L18.5891 14.3674C18.6891 14.2751 18.7472 14.146 18.7499 14.01C18.7526 13.8739 18.6998 13.7427 18.6036 13.6464L12.1036 7.14645Z" fill="#464646"/>
</svg>
