<svg width="24" height="24" viewBox="0 0 24 24" fill="none" xmlns="http://www.w3.org/2000/svg">
<path fill-rule="evenodd" clip-rule="evenodd" d="M23 12C23 18.0751 18.0751 23 12 23C5.92487 23 1 18.0751 1 12C1 5.92487 5.92487 1 12 1C18.0751 1 23 5.92487 23 12ZM24 12C24 18.6274 18.6274 24 12 24C5.37258 24 0 18.6274 0 12C0 5.37258 5.37258 0 12 0C18.6274 0 24 5.37258 24 12ZM15.45 12.9279L11.0786 15.4517C10.3643 15.8641 9.47143 15.3486 9.47143 14.5238V9.47616C9.47143 8.65137 10.3643 8.13588 11.0786 8.54827L15.45 11.0721C16.1643 11.4845 16.1643 12.5155 15.45 12.9279ZM15.9857 10.1442C17.4143 10.969 17.4143 13.031 15.9857 13.8558L11.6143 16.3796C10.1857 17.2044 8.4 16.1734 8.4 14.5238V9.47616C8.4 7.82658 10.1857 6.7956 11.6143 7.62039L15.9857 10.1442Z" fill="white"/>
</svg>
