<svg width="24" height="24" viewBox="0 0 24 24" fill="none" xmlns="http://www.w3.org/2000/svg">
<path fill-rule="evenodd" clip-rule="evenodd" d="M15.5309 10.9476C17.2137 10.9476 18.5559 9.60419 18.5559 7.97382C18.5559 6.34346 17.2137 5 15.5309 5C13.8481 5 12.5059 6.34346 12.5059 7.97382C12.5059 9.60419 13.8481 10.9476 15.5309 10.9476ZM15.5309 11.9476C17.7538 11.9476 19.5559 10.1685 19.5559 7.97382C19.5559 5.77914 17.7538 4 15.5309 4C13.3079 4 11.5059 5.77914 11.5059 7.97382C11.5059 10.1685 13.3079 11.9476 15.5309 11.9476ZM9.49316 18.4053C9.93921 18.6312 9.93916 18.6313 9.93912 18.6314L9.93917 18.6313L9.94004 18.6296L9.94447 18.621L9.96404 18.5837C9.98179 18.5502 10.0089 18.4999 10.0449 18.4352C10.117 18.3057 10.2248 18.1189 10.3653 17.894C10.6469 17.4431 11.0566 16.8443 11.5701 16.2479C12.6195 15.029 14.0006 13.938 15.5307 13.938C16.1504 13.938 16.8088 14.1948 17.4727 14.6318C18.133 15.0664 18.7618 15.6549 19.312 16.2585C19.8604 16.86 20.3192 17.4638 20.6415 17.9183C20.8023 18.1451 20.9283 18.3336 21.0136 18.4647C21.0562 18.5301 21.0887 18.5812 21.1101 18.6154L21.134 18.6537L21.1397 18.6628L21.1408 18.6648L21.141 18.6651C21.141 18.665 21.1409 18.6649 21.5682 18.4053C21.9955 18.1456 21.9954 18.1455 21.9954 18.1454L21.9951 18.145L21.9945 18.1439L21.9924 18.1405L21.9849 18.1283L21.957 18.0836C21.9328 18.045 21.8974 17.9893 21.8516 17.919C21.76 17.7784 21.6266 17.5788 21.4572 17.3399C21.1191 16.8631 20.6346 16.225 20.051 15.5848C19.4691 14.9465 18.7772 14.2932 18.0225 13.7965C17.2713 13.3021 16.4204 12.938 15.5307 12.938C13.5389 12.938 11.9012 14.3306 10.8123 15.5954C10.5992 15.8429 10.4033 16.09 10.2257 16.3277C9.87561 15.9663 9.4822 15.6108 9.0601 15.3147C8.45098 14.8875 7.73679 14.5522 6.97833 14.5522C5.42678 14.5522 4.16643 15.6344 3.34481 16.5887C2.9228 17.0789 2.58959 17.5666 2.36219 17.9307C2.24816 18.1133 2.15991 18.2661 2.09962 18.3743C2.06946 18.4284 2.04624 18.4715 2.03025 18.5017L2.01169 18.5371L2.00652 18.5471L2.00498 18.5501L2.00446 18.5511L2.00427 18.5515C2.0042 18.5517 2.00413 18.5518 2.45019 18.7777C2.89624 19.0036 2.89619 19.0037 2.89614 19.0038L2.89661 19.0029L2.89967 18.997L2.91379 18.97C2.92672 18.9456 2.94662 18.9087 2.97321 18.861C3.02642 18.7654 3.10621 18.6272 3.21033 18.4605C3.41924 18.126 3.7228 17.6824 4.10264 17.2412C4.88475 16.3328 5.88847 15.5522 6.97833 15.5522C7.4463 15.5522 7.95854 15.7636 8.48588 16.1334C8.89701 16.4218 9.29004 16.7874 9.64302 17.1662C9.59869 17.2348 9.55673 17.3009 9.51718 17.3642C9.36679 17.605 9.25054 17.8063 9.17133 17.9485C9.13171 18.0196 9.10131 18.076 9.08049 18.1153L9.05649 18.1611L9.04995 18.1738L9.04806 18.1775L9.04746 18.1786L9.04725 18.1791C9.04717 18.1792 9.0471 18.1794 9.49316 18.4053ZM8.99651 10.9542C8.99651 12.0359 8.10478 12.9346 6.97774 12.9346C5.8507 12.9346 4.95898 12.0359 4.95898 10.9542C4.95898 9.87255 5.8507 8.97388 6.97774 8.97388C8.10478 8.97388 8.99651 9.87255 8.99651 10.9542ZM9.99651 10.9542C9.99651 12.6003 8.64496 13.9346 6.97774 13.9346C5.31052 13.9346 3.95898 12.6003 3.95898 10.9542C3.95898 9.30823 5.31052 7.97388 6.97774 7.97388C8.64496 7.97388 9.99651 9.30823 9.99651 10.9542Z" fill="black"/>
</svg>
