<svg width="66" height="18" viewBox="0 0 66 18" fill="none" xmlns="http://www.w3.org/2000/svg">
<g clip-path="url(#clip0_12_855)">
<rect width="66" height="18" rx="9" fill="#FBB11A"/>
<path d="M18.056 5.86H16.724V7.06H18.056V8.188H16.724V9.508H15.296V3.256H16.724V4.708H18.056V5.86ZM16.844 11.776C16.844 13.084 15.5 13.936 13.172 13.936C10.88 13.936 9.524 13.084 9.524 11.776C9.524 10.444 10.88 9.604 13.172 9.604C15.5 9.604 16.844 10.444 16.844 11.776ZM13.172 10.732C11.78 10.732 10.964 11.128 10.964 11.776C10.964 12.424 11.78 12.808 13.172 12.808C14.6 12.808 15.416 12.424 15.416 11.776C15.416 11.128 14.6 10.732 13.172 10.732ZM8.408 6.4C8.408 4.936 9.62 3.856 11.168 3.856C12.716 3.856 13.94 4.912 13.94 6.4C13.94 7.912 12.728 8.86 11.168 8.86C9.644 8.86 8.408 7.912 8.408 6.4ZM9.776 6.388C9.776 7.216 10.34 7.804 11.168 7.804C12.008 7.804 12.596 7.204 12.596 6.388C12.596 5.62 12.044 4.996 11.168 4.996C10.328 4.996 9.776 5.632 9.776 6.388ZM19.8828 8.62C21.2988 8.62 22.8468 8.572 24.0588 8.32L24.1788 9.388C23.1348 9.64 21.4668 9.748 19.5348 9.748C19.1988 9.748 18.8388 9.736 18.4908 9.736V4.168H23.3148V5.284H19.8828V6.364H23.0988V7.48H19.8828V8.62ZM28.0068 7.324H26.4948V10.972H25.0788V3.256H26.4948V6.172H28.0068V7.324ZM26.7468 13.636H19.5708V10.3H20.9748V12.508H26.7468V13.636ZM34.3816 10.444L33.6016 11.464C32.6176 10.972 31.3456 9.592 31.0336 8.56C30.7696 9.652 29.6896 11.08 28.4416 11.692L27.5776 10.648C29.3536 9.676 30.2896 8.032 30.2896 5.788V5.5H28.1296V4.348H33.8296V5.5H31.7416V5.776C31.7416 8.032 32.7736 9.556 34.3816 10.444ZM36.2896 3.256V7.372H37.8136V8.536H36.2896V13.948H34.8856V3.256H36.2896ZM46.8044 13.948H45.4604V8.56H44.5964V13.456H43.2764V3.448H44.5964V7.444H45.4604V3.256H46.8044V13.948ZM42.2324 11.176H37.9604V4.36H39.3524V6.82H40.8404V4.348H42.2324V11.176ZM40.8404 10.072V7.9H39.3524V10.072H40.8404ZM56.0472 11.944C56.0472 13.168 54.6912 13.924 52.3272 13.924C49.9632 13.924 48.5952 13.168 48.5952 11.944C48.5952 10.72 49.9632 9.952 52.3152 9.952C54.6912 9.952 56.0472 10.72 56.0472 11.944ZM52.3272 5.344C51.7872 6.568 50.0472 7.42 48.4992 7.624L47.9112 6.532C49.6992 6.352 51.6072 5.38 51.6072 3.772V3.46H53.0592V3.772C53.0592 5.38 55.2312 6.46 56.7672 6.532L56.1672 7.636C54.7392 7.432 52.8672 6.568 52.3272 5.344ZM57.1512 9.46H47.4912V8.344H51.6192V6.964H53.0232V8.344H57.1512V9.46ZM54.6072 11.944C54.6072 11.404 53.7072 11.068 52.3152 11.068C50.9352 11.068 50.0472 11.404 50.0472 11.944C50.0472 12.496 50.9352 12.82 52.3152 12.82C53.7072 12.82 54.6072 12.496 54.6072 11.944Z" fill="white"/>
</g>
<defs>
<clipPath id="clip0_12_855">
<rect width="66" height="18" fill="white"/>
</clipPath>
</defs>
</svg>
