<svg width="24" height="24" viewBox="0 0 24 24" fill="none" xmlns="http://www.w3.org/2000/svg">
<path d="M3.81818 11.65H9.55455L8.69091 7.3085L8.66364 7.0045C8.66364 6.615 8.81818 6.254 9.06364 5.9975L10.0273 5L16.0091 11.2605C16.3455 11.6025 16.5455 12.0775 16.5455 12.6V22.1C16.5455 23.145 15.7273 24 14.7273 24H6.54545C5.79091 24 5.14545 23.525 4.87273 22.841L2.12727 16.1435C2.04545 15.925 2 15.697 2 15.45V13.55C2 12.505 2.81818 11.65 3.81818 11.65ZM22 12.6H18.3636V24H22V12.6Z" fill="#4B92D9"/>
</svg>
