<svg width="24" height="24" viewBox="0 0 24 24" fill="none" xmlns="http://www.w3.org/2000/svg">
<path d="M22 20.4761V21.4829L14 24.0001L7 22.0468V23.4967H1V12.4211H8.97L15.13 14.7369C16.25 15.1598 17 16.2472 17 17.4555H19C20.66 17.4555 22 18.8047 22 20.4761ZM5 21.4829V14.4349H3V21.4829H5ZM19.9 20.0431C19.74 19.7108 19.39 19.4793 19 19.4793H13.65C13.11 19.4793 12.58 19.3886 12.07 19.2175L9.69 18.4221L10.32 16.509L12.7 17.3044C13.01 17.4051 15 17.4555 15 17.4555C15 17.0829 14.77 16.7507 14.43 16.6198L8.61 14.4349H7V19.9525L13.97 21.8957L19.9 20.0431Z" fill="#E0EEFF"/>
<path d="M18.3513 4C17.5291 4 16.74 4.41818 16.225 5.07902C15.71 4.41818 14.9209 4 14.0987 4C12.6435 4 11.5 5.24939 11.5 6.83952C11.5 8.79105 13.1065 10.3812 15.5399 12.7974L16.225 13.4737L16.9101 12.7922C19.3435 10.3812 20.95 8.79105 20.95 6.83952C20.95 5.24939 19.8066 4 18.3513 4Z" fill="#E0EEFF"/>
</svg>
