<svg width="90" height="18" viewBox="0 0 90 18" fill="none" xmlns="http://www.w3.org/2000/svg">
<path d="M9 0L11.7508 5.2138L17.5595 6.21885L13.4509 10.4462L14.2901 16.2812L9 13.68L3.70993 16.2812L4.54906 10.4462L0.440492 6.21885L6.24917 5.2138L9 0Z" fill="#EA217D"/>
<path d="M27 0L29.7508 5.2138L35.5595 6.21885L31.4509 10.4462L32.2901 16.2812L27 13.68L21.7099 16.2812L22.5491 10.4462L18.4405 6.21885L24.2492 5.2138L27 0Z" fill="#D6D6D6"/>
<path d="M45 0L47.7508 5.2138L53.5595 6.21885L49.4509 10.4462L50.2901 16.2812L45 13.68L39.7099 16.2812L40.5491 10.4462L36.4405 6.21885L42.2492 5.2138L45 0Z" fill="#D6D6D6"/>
<path d="M63 0L65.7508 5.2138L71.5595 6.21885L67.4509 10.4462L68.2901 16.2812L63 13.68L57.7099 16.2812L58.5491 10.4462L54.4405 6.21885L60.2492 5.2138L63 0Z" fill="#D6D6D6"/>
<path d="M81 0L83.7508 5.2138L89.5595 6.21885L85.4509 10.4462L86.2901 16.2812L81 13.68L75.7099 16.2812L76.5491 10.4462L72.4405 6.21885L78.2492 5.2138L81 0Z" fill="#D6D6D6"/>
</svg>
