<svg width="24" height="24" viewBox="0 0 24 24" fill="none" xmlns="http://www.w3.org/2000/svg">
<path fill-rule="evenodd" clip-rule="evenodd" d="M18.5 7.29412C19.2753 7.29412 20 6.61133 20 5.64706C20 4.68279 19.2753 4 18.5 4C17.7247 4 17 4.68279 17 5.64706C17 6.61133 17.7247 7.29412 18.5 7.29412ZM18.5 8.29412C19.8807 8.29412 21 7.10899 21 5.64706C21 4.18513 19.8807 3 18.5 3C17.1193 3 16 4.18513 16 5.64706C16 5.96371 16.0525 6.26738 16.1488 6.54883L7.73825 10.8195C7.32844 9.95006 6.48008 9.35291 5.5 9.35291C4.11929 9.35291 3 10.538 3 12C3 13.4619 4.11929 14.647 5.5 14.647C6.48006 14.647 7.3284 14.0499 7.73822 13.1805L16.1488 17.4512C16.0525 17.7326 16 18.0363 16 18.353C16 19.8149 17.1193 21 18.5 21C19.8807 21 21 19.8149 21 18.353C21 16.8911 19.8807 15.7059 18.5 15.7059C17.7623 15.7059 17.0992 16.0442 16.6416 16.5823L7.99358 12.1911C7.99784 12.128 8 12.0642 8 12C8 11.9357 7.99784 11.872 7.99359 11.8089L16.6416 7.4177C17.0992 7.9558 17.7623 8.29412 18.5 8.29412ZM5.5 13.647C6.27534 13.647 7 12.9642 7 12C7 11.0357 6.27534 10.3529 5.5 10.3529C4.72466 10.3529 4 11.0357 4 12C4 12.9642 4.72466 13.647 5.5 13.647ZM20 18.353C20 19.3173 19.2753 20 18.5 20C17.7247 20 17 19.3173 17 18.353C17 17.3887 17.7247 16.7059 18.5 16.7059C19.2753 16.7059 20 17.3887 20 18.353Z" fill="black"/>
</svg>
