<svg width="20" height="20" viewBox="0 0 20 20" fill="none" xmlns="http://www.w3.org/2000/svg">
<path fill-rule="evenodd" clip-rule="evenodd" d="M10 17C13.866 17 17 13.866 17 10C17 6.13401 13.866 3 10 3C6.13401 3 3 6.13401 3 10C3 13.866 6.13401 17 10 17ZM10 6.5C10 6.22386 9.77614 6 9.5 6C9.22386 6 9 6.22386 9 6.5V10C9 10.1326 9.05268 10.2598 9.14645 10.3536L11.6464 12.8536C11.8417 13.0488 12.1583 13.0488 12.3536 12.8536C12.5488 12.6583 12.5488 12.3417 12.3536 12.1464L10 9.79289V6.5Z" fill="#3D499F"/>
</svg>
